<?xml version="1.0" encoding="iso-8859-1"?>
<!-- Generator: Adobe Illustrator 16.0.0, SVG Export Plug-In . SVG Version: 6.00 Build 0)  -->
<!DOCTYPE svg PUBLIC "-//W3C//DTD SVG 1.1//EN" "http://www.w3.org/Graphics/SVG/1.1/DTD/svg11.dtd">
<svg version="1.1" id="&#x56FE;&#x5C42;_1" xmlns="http://www.w3.org/2000/svg" xmlns:xlink="http://www.w3.org/1999/xlink" x="0px"
	 y="0px" width="841.89px" height="595.28px" viewBox="0 0 841.89 595.28" style="enable-background:new 0 0 841.89 595.28;"
	 xml:space="preserve">
<path style="fill:none;stroke:#DFE2D9;stroke-width:1.2205;stroke-miterlimit:10;" d="M640.764,304.003
	c0,107.581-87.209,194.79-194.788,194.79c-107.58,0-194.789-87.209-194.789-194.79c0-107.577,87.209-194.787,194.789-194.787
	C553.555,109.216,640.764,196.426,640.764,304.003z"/>
<g id="XMLID_1_">
	<g>
		<linearGradient id="SVGID_1_" gradientUnits="userSpaceOnUse" x1="270.6699" y1="304" x2="621.29" y2="304">
			<stop  offset="0" style="stop-color:#59BEAF;stop-opacity:0.8"/>
			<stop  offset="1" style="stop-color:#509999;stop-opacity:0.6"/>
			<stop  offset="1" style="stop-color:#509798;stop-opacity:0.4"/>
		</linearGradient>
		<path style="fill:url(#SVGID_1_);" d="M445.98,128.69c96.819,0,175.31,78.49,175.31,175.31c0,96.83-78.49,175.31-175.31,175.31
			C349.15,479.31,270.67,400.83,270.67,304C270.67,207.18,349.15,128.69,445.98,128.69z"/>
	</g>
	<g>
		<path style="fill:none;stroke:#DFE2D9;stroke-width:1.0985;stroke-miterlimit:10;" d="M621.29,304
			c0,96.83-78.49,175.31-175.31,175.31C349.15,479.31,270.67,400.83,270.67,304c0-96.82,78.48-175.31,175.311-175.31
			C542.8,128.69,621.29,207.18,621.29,304z"/>
	</g>
</g>
<g>
	<path id="path5925" style="fill:#FFFEF3;" d="M441.329,222.187c-1.533-0.013-3.066,0.062-4.594,0.235
		c-1.335,0.155-2.668,0.4-3.978,0.731c0.069,0.756,0.109,1.509,0.121,2.27c0.01,0.749-0.018,1.502-0.072,2.252
		c3.364-0.938,6.967-1.111,10.297-0.101c0.73,0.219,1.438,0.503,2.135,0.811c-0.191-0.462-0.369-0.932-0.531-1.405
		c-0.523-1.514-0.912-3.108-1.092-4.711C442.854,222.223,442.091,222.189,441.329,222.187L441.329,222.187z"/>
	<path id="path5921" style="fill:#FFFEF3;" d="M417.242,235.274c-0.936,1.901-1.672,3.92-2.281,5.977
		c0.331-0.556,0.714-1.086,1.124-1.587c0.805-0.988,1.701-1.901,2.669-2.732c-0.195-0.166-0.383-0.334-0.561-0.521
		C417.846,236.06,417.53,235.677,417.242,235.274L417.242,235.274z"/>
	<path id="path6020" style="fill:#FFFEF3;" d="M413.543,246.804c-0.926,4.078-1.766,8.183-3.324,12.054
		c-0.858,2.131-1.921,4.146-3.09,6.113c-3.371,8.72-11.434,25.189-14.745,36.89c-1.488,4.396-3.032,8.776-4.871,13.036
		c-1.12,2.593-2.351,5.141-3.298,7.805c-2.172,6.111-2.79,12.854-1.146,19.125c0.66,2.52,1.676,4.944,3.003,7.188
		c0.087,0.142,0.185,0.286,0.273,0.431c-0.04-2.867,0.074-5.737,0.352-8.586c0.945-9.655,3.631-19.104,7.548-27.979
		c2.584-5.854,5.704-11.473,9.306-16.765c-0.347-3.34-0.026-6.746,0.935-9.963c1.587-5.316,4.841-9.945,8.058-14.465
		c1.859-2.604,3.758-5.282,4.605-8.372c0.792-2.89,0.608-5.936,0.723-8.927c0.041-1.086,0.128-2.172,0.309-3.241
		c-0.667-0.599-1.375-1.149-2.133-1.625c-0.395-0.246-0.803-0.474-1.178-0.749c-0.376-0.276-0.724-0.599-0.963-0.998
		c-0.11-0.185-0.189-0.385-0.247-0.592c-0.021-0.047-0.043-0.093-0.061-0.139C413.574,246.968,413.557,246.889,413.543,246.804z
		 M383.5,348.434c0.186,0.314,0.386,0.616,0.594,0.912C383.885,349.05,383.685,348.748,383.5,348.434z M384.277,349.599
		c0.153,0.209,0.308,0.415,0.469,0.617C384.584,350.014,384.43,349.808,384.277,349.599z M373.953,349.964
		c-0.027,0-0.055,0.003-0.083,0.007c0.171-0.007,0.342-0.007,0.514,0C374.241,349.967,374.097,349.964,373.953,349.964
		L373.953,349.964z M373.831,349.971c-0.191,0.006-0.381,0.018-0.57,0.036C373.45,349.988,373.642,349.977,373.831,349.971z
		 M374.488,349.973c0.172,0.01,0.347,0.022,0.518,0.041C374.835,349.995,374.66,349.982,374.488,349.973z M375.088,350.023
		c0.2,0.021,0.399,0.053,0.598,0.088C375.487,350.076,375.288,350.044,375.088,350.023z M384.969,350.493
		c0.182,0.218,0.366,0.433,0.557,0.649C385.335,350.926,385.151,350.711,384.969,350.493z M385.663,351.299
		c0.249,0.27,0.505,0.542,0.766,0.811C386.168,351.841,385.912,351.568,385.663,351.299z"/>
	<path id="path5919" style="fill:#FFFEF3;" d="M484.319,384.051c-1.467,1.58-3.009,3.099-4.555,4.598
		c-5.682,5.503-11.571,10.938-18.551,14.662c-2.147,1.143-4.385,2.099-6.683,2.878c-3.865,1.272-7.912,1.852-11.967,2.284
		c-1.096,0.117-2.285,0.112-3.207,0.092c-6.364-0.137-12.741-1.251-18.63-3.672c-1.621-0.606-3.135-1.088-4.529-1.821
		c3.893,5.016,5.501,12.928,7.164,17.02c3.128-0.593,6.282-1.052,9.46-1.123c1.005-0.024,2.018-0.017,3.017-0.104
		c2.777,0.305,5.573,0.419,8.373,0.307c0.351-0.011,0.702-0.033,1.052-0.054c0.715,0.08,1.437,0.123,2.152,0.166
		c4.911,0.285,9.812,0.762,14.677,1.494c4.275,0.647,8.521,1.496,12.727,2.513c1.952,0.472,3.903,0.98,5.857,1.474
		c-2.258-14.317,0.128-28.173,3.63-40.426c-0.001,0.002-0.005,0.004-0.008,0.01C484.306,384.245,484.314,384.147,484.319,384.051
		L484.319,384.051z"/>
	<path id="path5917" style="fill:#FFFEF3;" d="M484.337,367.577c0.018,0.365,0.034,0.729,0.05,1.094
		C484.371,368.306,484.354,367.942,484.337,367.577z"/>
	<path id="path5915" style="fill:#FFFEF3;" d="M484.455,370.284c0.017,0.442,0.032,0.882,0.047,1.318
		C484.487,371.166,484.472,370.727,484.455,370.284z"/>
	<path id="path6289" style="fill:#FFFEF3;" d="M468.332,227.843c-0.114,0.733-0.27,1.461-0.468,2.174
		C468.063,229.304,468.218,228.576,468.332,227.843z"/>
	<path id="path6287" style="fill:#FFFEF3;" d="M467.79,230.268c-0.077,0.266-0.164,0.53-0.257,0.79
		C467.626,230.798,467.712,230.534,467.79,230.268z"/>
	<path id="path6285" style="fill:#FFFEF3;" d="M467.44,231.324c-0.126,0.333-0.258,0.663-0.408,0.988
		C467.183,231.986,467.314,231.656,467.44,231.324z"/>
	<path id="path6283" style="fill:#FFFEF3;" d="M466.024,236.929c0.16,0.094,0.313,0.194,0.459,0.305
		C466.338,237.127,466.185,237.023,466.024,236.929z"/>
	<path id="path6281" style="fill:#FFFEF3;" d="M466.605,237.326c0.035,0.027,0.069,0.054,0.104,0.084
		C466.675,237.38,466.641,237.353,466.605,237.326z"/>
	<path id="path6279" style="fill:#FFFEF3;" d="M466.88,237.571c0.029,0.025,0.056,0.053,0.083,0.08
		C466.936,237.624,466.909,237.597,466.88,237.571z"/>
	<path id="path6277" style="fill:#FFFEF3;" d="M490.007,244.202c-8.819,4.873-12.814,7.857-14.443,24.651
		c0.359,0.733,0.714,1.464,1.056,2.208c2.934,6.377,4.95,13.174,5.973,20.118c3.842,3.969,7.044,8.55,9.446,13.518
		c6.979,14.432,6.919,31.245,5.018,47.166c-0.06,0.495-0.088,0.736-0.121,1.008c-0.059,0.47-0.113,0.884-0.238,1.735
		c0.861,0.457,1.688,0.852,2.495,1.206c-0.815,2.503-1.063,5.177-0.856,7.782c0.193,2.402,0.796,4.926,2.438,6.81
		c1.329,1.529,3.181,2.458,5.06,3.012c3.238,0.959,6.755,0.91,9.961-0.14l0,0h0.004c5.241-1.759,9.876-5.246,13.017-9.794
		c1.033-1.498,1.935-3.152,2.346-4.979c0.061-0.263,0.107-0.532,0.143-0.804c1.656-2.858,2.789-6.051,3.399-9.305
		c1.149-6.122,0.621-12.452-0.447-18.595c-1.459-8.37-3.913-16.558-7.036-24.462c-2.296-5.815-4.984-11.533-8.738-16.531
		c-3.676-4.895-8.308-9.012-11.908-13.959c-1.896-2.604-3.511-5.439-5.487-7.973c0-0.002,0-0.002,0-0.002
		c-0.799-1.648-1.588-3.303-2.352-4.97c-2.377-5.173-4.535-10.467-7.348-15.419C490.944,245.714,490.481,244.956,490.007,244.202
		L490.007,244.202z M490.595,292.826c1.994,1.147,4.056,2.179,6.092,3.251c7.807,3.652,14.419,10.109,16.889,18.387
		c3.621,10.829,0.247,22.257-3.842,32.451c-0.064,0.067-0.13,0.158-0.193,0.264c0.272-0.019,0.546-0.037,0.822-0.037
		c1.281-0.02,2.573,0.147,3.841,0.364c1.951,0.332,3.882,0.779,5.827,1.143c0.334,0.062,0.672,0.123,1.009,0.186
		c-0.547-0.032-1.094-0.055-1.641-0.075c-0.198-0.004-0.4-0.006-0.602-0.012c-0.433-0.007-0.866-0.013-1.302-0.013
		c-0.152,0-0.306,0-0.459,0c-0.599,0.006-1.198,0.015-1.8,0.037c-1.35,0.053-2.7,0.148-4.046,0.271c-0.399,0.036-0.8,0.079-1.2,0.13
		c-0.399,0.05-0.799,0.108-1.192,0.176c-0.004,0-0.005-0.004-0.005,0c-0.001,0-0.004,0-0.005,0.004
		c-0.726,0.123-1.444,0.294-2.138,0.523l0,0c-0.373,0.13-0.744,0.269-1.103,0.438c-0.174,0.082-0.345,0.174-0.514,0.262
		c-0.51,0.277-0.991,0.59-1.474,0.914c-0.641,0.431-1.271,0.882-1.927,1.288c-0.249,0.151-0.505,0.296-0.763,0.437
		c-0.002,0-0.004,0.002-0.006,0.002c-0.03,0.015-0.064,0.031-0.092,0.043c0.684-1.243,1.547-2.39,2.596-3.346
		c1.178-1.08,2.59-1.914,4.117-2.365c3.351-9.37,6.32-19.064,4.832-28.702c-1.045-6.759-4.412-13.257-9.781-17.569
		c-3.256-2.619-7.226-4.429-10.557-7.202C491.499,293.677,491.044,293.258,490.595,292.826L490.595,292.826z"/>
	<path id="path6275" style="fill:#FFFEF3;" d="M470.671,259.046c0.069,0.155,0.143,0.31,0.214,0.46
		C470.813,259.356,470.74,259.201,470.671,259.046z"/>
	<path id="path6273" style="fill:#FFFEF3;" d="M471.386,260.567c0.384,0.804,0.779,1.601,1.181,2.391
		C472.167,262.168,471.77,261.371,471.386,260.567z"/>
	<path id="path6269" style="fill:#FFFEF3;" d="M506.334,358.145c0.153,0.049,0.307,0.098,0.46,0.141
		C506.641,358.242,506.487,358.193,506.334,358.145z"/>
	<path id="path6267" style="fill:#FFFEF3;" d="M508.089,358.663c0.342,0.092,0.688,0.177,1.03,0.261
		C508.776,358.84,508.431,358.755,508.089,358.663z"/>
	<path id="path6265" style="fill:#FFFEF3;" d="M509.56,359.02c0.21,0.045,0.421,0.088,0.63,0.131
		C509.98,359.107,509.77,359.064,509.56,359.02z"/>
	<path id="path6263" style="fill:#FFFEF3;" d="M510.728,359.248c0.142,0.025,0.283,0.05,0.427,0.072
		C511.011,359.298,510.869,359.273,510.728,359.248z"/>
	<path id="path5923" style="fill:#FFFEF3;" d="M511.883,359.428c0.06,0.009,0.115,0.017,0.176,0.021
		C511.998,359.444,511.942,359.437,511.883,359.428z"/>
	<path id="path5913" style="fill:#FFFEF3;" d="M484.523,379.34c-0.019,0.696-0.043,1.388-0.069,2.086
		C484.48,380.728,484.505,380.036,484.523,379.34z"/>
	<path id="path29670-2" style="fill:#FFFEF3;" d="M484.434,381.885c-0.032,0.707-0.066,1.407-0.11,2.111
		C484.367,383.292,484.401,382.592,484.434,381.885z"/>
	<path id="path28712-2" style="fill:#FFFEF3;stroke:#DFE2D9;stroke-width:3.1609;stroke-miterlimit:10;" d="M445.431,169.252
		c-6.398-0.068-12.873,1.225-18.508,4.26c-5.986,3.229-10.89,8.39-13.912,14.482c-3.02,6.088-4.158,12.96-4.386,19.756
		c-0.226,6.669,0.39,13.336,0.64,20.007c0.257,6.94,0.119,13.893,0.695,20.815c0.184,2.229,0.443,4.458,0.436,6.696
		c-0.009,2.443-0.332,4.938,0.281,7.307c0.409,1.575,1.227,3.037,2.3,4.262c0.529,0.608,1.122,1.154,1.756,1.646
		c1.024-1.625,1.911-3.322,2.417-5.168c0.792-2.89,0.608-5.936,0.723-8.927c0.041-1.086,0.128-2.172,0.309-3.241
		c-0.667-0.599-1.375-1.149-2.133-1.625c-0.395-0.246-0.803-0.474-1.178-0.749c-0.376-0.276-0.724-0.599-0.963-0.998
		c-0.11-0.185-0.189-0.385-0.247-0.592c-0.021-0.047-0.043-0.093-0.061-0.139c-0.055-0.167-0.077-0.344-0.077-0.519
		c-0.004-0.355,0.082-0.701,0.153-1.047c0.094-0.455,0.167-0.924,0.253-1.384c0.084-0.464,0.187-0.924,0.334-1.369
		c0.382-1.129,1.067-2.136,1.822-3.062c0.187-0.228,0.379-0.454,0.575-0.671c0.06-0.068,0.12-0.13,0.178-0.196
		c0.141-0.155,0.283-0.305,0.426-0.459c0.068-0.068,0.138-0.139,0.208-0.21c0.156-0.157,0.316-0.312,0.478-0.462
		c0.05-0.05,0.099-0.095,0.15-0.143c0.214-0.2,0.433-0.398,0.656-0.59c-0.195-0.166-0.383-0.334-0.561-0.521
		c-1.01-1.027-1.766-2.291-2.305-3.622c-1.077-2.678-1.289-5.608-1.495-8.484c-0.23-3.176-0.457-6.453,0.551-9.472
		c0.504-1.512,1.324-2.933,2.487-4.019c1.163-1.086,2.684-1.822,4.274-1.908c1.193-0.066,2.393,0.233,3.464,0.761
		c1.073,0.531,2.022,1.284,2.855,2.143c1.719,1.765,2.952,3.978,3.724,6.321c0.772,2.347,1.095,4.822,1.131,7.292
		c0.01,0.749-0.018,1.502-0.072,2.252c0,0,0.003,0,0.004,0c0.169-0.048,0.343-0.087,0.516-0.13c0.282-0.071,0.565-0.141,0.854-0.203
		c0.379-0.08,0.76-0.155,1.144-0.214c0.03-0.002,0.061-0.009,0.091-0.014c0.409-0.061,0.817-0.111,1.228-0.148
		c0.022,0,0.043,0,0.065-0.004c0.824-0.071,1.65-0.088,2.473-0.048c0.047,0.002,0.094,0.002,0.14,0.005
		c0.384,0.022,0.766,0.059,1.145,0.102c0.104,0.011,0.207,0.027,0.311,0.043c0.093,0.011,0.185,0.025,0.278,0.041
		c0.146,0.022,0.29,0.052,0.435,0.075c0.088,0.021,0.173,0.032,0.261,0.05c0.158,0.034,0.316,0.068,0.473,0.109
		c0.067,0.014,0.135,0.027,0.202,0.045c0.228,0.055,0.453,0.121,0.681,0.189c0.722,0.219,1.423,0.499,2.115,0.804
		c0.005,0,0.013,0.005,0.02,0.007c-0.191-0.462-0.369-0.932-0.531-1.405c-1.237-3.586-1.728-7.584-0.446-11.159
		c1.018-2.833,3.097-5.209,5.578-6.915c0.771-0.53,1.586-0.999,2.455-1.338c1.528-0.592,3.213-0.763,4.834-0.538
		c1.625,0.223,3.187,0.833,4.562,1.726c2.754,1.781,4.703,4.641,5.779,7.739c0.991,2.848,1.286,5.911,1.115,8.928
		c-0.131,2.363-0.558,4.738-1.552,6.89c-0.681,1.466-1.646,2.818-2.859,3.882c0,0,0.004,0,0.007,0
		c0.204,0.062,0.406,0.125,0.608,0.191c0.231,0.082,0.459,0.168,0.683,0.267c0.187,0.084,0.373,0.172,0.554,0.277l0,0
		c0.45,0.26,0.862,0.581,1.167,0.988l0,0c0.061,0.08,0.118,0.167,0.17,0.255c0.043,0.073,0.081,0.148,0.113,0.226
		c0.003,0,0.004,0,0.004,0.005c0.034,0.077,0.062,0.152,0.09,0.229c0.009,0.014,0.017,0.019,0.024,0.032
		c0.401,0.521,0.646,1.154,0.757,1.803c0.114,0.651,0.1,1.318,0.021,1.971c-0.156,1.312-0.567,2.578-0.738,3.887
		c-0.129,1.009-0.121,2.067-0.566,2.988c-0.114,0.229-0.252,0.444-0.412,0.648c0.319,0.549,0.619,1.118,0.893,1.692
		c0.895,1.876,1.597,3.841,2.403,5.756c1.651,3.918,3.732,7.632,5.613,11.443c8.313-0.134,14.249-3.142,14.744-11.855
		c0.49-9.005-0.952-17.994-1.411-27.001c-0.486-9.508,0.104-19.201-2.387-28.383c-1.217-4.479-3.154-8.754-5.647-12.668
		c-2.921-4.587-6.628-8.698-11.032-11.887C462.806,171.969,454.106,169.346,445.431,169.252z M460.173,201.167
		c0.973,0.041,1.914,0.257,2.914,0.922c2.776,1.842,4.125,3.95,5.165,6.521c0.285,0.704,0.558,1.899,0.224,2.27
		c-1.427-2.896-3.463-5.499-6.143-7.279c-1.386-0.92-2.938-1.589-4.563-1.94c0.259-0.54,0.919-0.46,1.418-0.483
		C459.521,201.163,459.851,201.153,460.173,201.167z M422.271,203.219c1.15,0.02,2.299,0.298,3.332,0.742
		c1.181,0.514,2.391,1.272,3.451,2.063c0.432,0.321,0.88,0.656,1.165,1.082c0.877,1.307,1.308,2.803,1.539,4.349
		c-0.939-2.004-2.329-3.896-4.198-5.431c-1.007-0.826-2.134-1.548-3.314-2.063c-0.868-0.374-1.822-0.622-2.781-0.704
		c0.104-0.011,0.212-0.014,0.317-0.02C421.947,203.23,422.107,203.214,422.271,203.219z"/>
	<path id="path8633" style="fill:#FFFEF3;" d="M391.101,365.626c2.746,4.207,3.028,4.423,5.331,8.155
		c0.899,1.464,1.111,1.814,1.579,2.601c2.951,4.944,5.663,10.05,9.072,14.688c2.227,3.029,4.738,5.837,6.975,8.86
		c2.237,3.018,4.219,6.294,5.211,9.919c1.29,4.712,0.79,9.901-1.45,14.239c-1.579,3.054-3.998,5.671-6.94,7.446
		c-2.942,1.771-6.4,2.69-9.833,2.561c-5.458-0.204-10.444-2.936-15.518-4.953c-10.336-4.117-21.566-5.409-32.22-8.614
		c-3.275-0.986-6.497-2.151-9.793-3.06c-1.466-0.4-2.953-0.756-4.337-1.383c-1.383-0.631-2.677-1.562-3.447-2.87
		c-0.595-1.013-0.847-2.209-0.83-3.382c0.016-1.176,0.29-2.336,0.689-3.44c0.8-2.206,2.091-4.205,2.965-6.389
		c1.423-3.559,1.68-7.483,1.486-11.317c-0.191-3.827-0.812-7.626-1.074-11.453c-0.117-1.707-0.162-3.438,0.164-5.118
		c0.325-1.683,1.051-3.327,2.285-4.514c1.137-1.096,2.646-1.745,4.192-2.067c1.544-0.325,3.137-0.339,4.716-0.303
		c1.579,0.037,3.161,0.121,4.733-0.008c1.574-0.131,3.155-0.484,4.525-1.27c1.304-0.741,2.37-1.852,3.252-3.063
		c0.882-1.217,1.598-2.541,2.33-3.852c0.73-1.311,1.49-2.617,2.447-3.772c0.959-1.155,2.131-2.162,3.519-2.735
		c1.428-0.593,3.035-0.703,4.554-0.421c1.52,0.277,2.955,0.937,4.232,1.803c2.558,1.737,4.454,4.267,6.268,6.769
		c1.669,2.297,3.309,4.609,4.914,6.953C391.1,365.632,391.101,365.63,391.101,365.626 M380.908,350.877
		c-5.808-3.144-11.583-4.557-16.26,0.768c-1.263,1.511-2.125,3.131-2.918,4.617c-1.582,2.979-2.993,5.081-3.925,5.485
		c-1.544,0.668-4.678,0.807-8.166,0.972c-3.488,0.163-7.59,0.369-10.978,3.192c-1.972,1.638-3.386,3.787-3.892,6.098
		c-0.507,2.309-0.247,4.536,0.205,6.904c1.324,6.938,2.843,14.459-0.108,20.419c-1.046,2.116-2.451,4.497-3.353,7.23
		c-0.9,2.743-1.208,6.263,0.655,9.35c1.272,2.104,3.063,3.655,4.854,4.393c1.791,0.737,3.223,0.9,5.04,1.425
		c2.286,0.664,7.501,2.323,9.798,3.029c11.326,3.487,21.622,5.253,32.42,8.58c1.994,0.616,4.563,1.934,7.396,3.128
		c2.833,1.193,6.047,2.339,9.662,1.94c7.423-0.818,15.499-4.87,19.552-11.685c3.181-5.353,3.436-11.317,1.827-16.981
		c-2.305-8.123-9.42-14.563-12.691-19.654C403.665,375.702,393.239,359.34,380.908,350.877z"/>
	<path id="path3732" style="fill:#FFFEF3;" d="M489.983,352.33c-0.215,0.002-0.432,0.008-0.657,0.021l0,0
		c-1.826,0.096-3.906,0.603-5.679,2.125c-1.527,1.316-2.338,2.999-2.759,4.596c-0.025,0.09-0.048,0.177-0.069,0.27
		c-0.068,0.296-0.126,0.592-0.171,0.886c-0.291,1.896-0.13,3.541-0.038,4.883c0.548,7.987,0.572,15.974-0.278,23.822
		c-0.465,4.318-1.205,8.669-1.994,13.064c-0.95,5.291-2.024,10.848-2.012,16.7c0.007,3.346,0.362,7.216,2.55,10.711
		c2.195,3.505,5.585,5.551,8.768,6.918c4.529,1.948,9.646,2.941,14.778,2.175c4.215-0.623,8.099-2.383,11.425-4.757
		c3.274-2.342,5.828-5.093,8.312-7.437c2.902-2.746,5.967-5.253,9.237-7.363c4.891-3.16,10.521-5.581,16.213-8.449
		c3.35-1.683,7.088-3.685,10.005-7.116c1.318-1.552,2.377-3.315,3.127-5.208l-0.077,0.047c0.084-0.191,0.148-0.394,0.191-0.602
		l0.043,0.053c0.371-1.572,0.325-3.186-0.096-4.712c-0.204-0.739-0.5-1.46-0.886-2.146c-0.863-1.529-2.016-2.626-3.105-3.479
		c-1.077-0.844-2.093-1.456-2.91-2.009c-1.747-1.176-3.464-2.587-5.257-4.073c-1.79-1.492-3.417-2.88-4.667-4.356
		c-1.232-1.459-2.104-3.05-2.396-4.552l0,0c-0.037-0.191-0.068-0.4-0.096-0.627c-0.177-1.599-0.14-2.421-0.269-3.681
		c-0.177-1.719-0.553-3.494-1.245-5.229c-0.509-1.276-1.237-2.683-2.469-3.92c-1.621-1.635-3.528-2.421-5.175-2.934
		c-1.602-0.498-3.312-0.828-5.099-0.871c-4.339-0.103-7.796,1.27-10.577,1.592c-2.576,0.299-5.335-0.018-8.064-0.749
		c-1.643-0.44-3.437-1.084-5.48-1.616c-3.24-0.842-6.373-1.176-9.265-1.603C492.768,352.547,491.481,352.322,489.983,352.33
		L489.983,352.33z M491.009,355.192c0.947,0.037,1.894,0.184,2.834,0.322c2.957,0.433,5.938,0.771,8.827,1.529
		c1.823,0.483,3.6,1.125,5.419,1.619c3.039,0.82,6.222,1.216,9.348,0.849c3.363-0.394,6.631-1.657,10.017-1.576
		c1.392,0.035,2.77,0.298,4.095,0.715c1.353,0.425,2.686,1.037,3.68,2.05c0.757,0.768,1.283,1.734,1.679,2.737
		c0.588,1.498,0.905,3.088,1.041,4.687c0.012,0.131,0.016,0.266,0.025,0.398l0,0c0.086,1.286,0.098,2.584,0.345,3.852
		c0.441,2.299,1.647,4.392,3.148,6.189c1.501,1.793,3.293,3.321,5.084,4.824c1.784,1.505,3.581,2.999,5.507,4.312
		c0.901,0.62,1.838,1.196,2.692,1.874c0.404,0.322,0.793,0.674,1.148,1.049l0,0c0.196,0.211,0.386,0.427,0.562,0.657
		c0.087,0.116,0.17,0.233,0.246,0.35c0.082,0.122,0.158,0.243,0.229,0.373c0.726,1.29,0.95,2.862,0.607,4.309
		c-0.135,0.351-0.29,0.694-0.454,1.029c-0.021,0.051-0.043,0.094-0.064,0.137c0,0.008,0,0.008,0,0.008
		c-0.54,1.092-1.206,2.123-1.996,3.056c-2.341,2.776-5.594,4.615-8.832,6.265c-5.523,2.817-11.248,5.285-16.442,8.674
		c-3.479,2.267-6.69,4.933-9.693,7.805c-2.57,2.451-5.005,5.073-7.886,7.155c-2.904,2.099-6.266,3.621-9.811,4.151
		c-4.313,0.646-8.767-0.191-12.763-1.931c-2.801-1.223-5.497-2.968-7.108-5.561c-1.62-2.604-1.988-5.794-1.994-8.859
		c-0.006-5.424,0.998-10.793,1.946-16.133c0.785-4.438,1.533-8.89,2.015-13.366c0.88-8.155,0.875-16.384,0.287-24.564
		c-0.011-0.132-0.018-0.271-0.028-0.403c-0.017-0.264-0.036-0.527-0.051-0.792c-0.034-0.535-0.038-1.078-0.031-1.591
		c-0.002-0.167,0.01-0.313,0.014-0.461c0.018-0.286,0.047-0.574,0.09-0.859c0.038-0.258,0.093-0.511,0.157-0.762
		c0.014-0.045,0.022-0.096,0.038-0.146c0.023-0.086,0.05-0.166,0.074-0.252c0.019-0.051,0.035-0.098,0.05-0.148
		c0.037-0.106,0.077-0.215,0.119-0.32c0.004-0.009,0.009-0.019,0.013-0.027c0.209-0.516,0.487-0.994,0.838-1.416
		c0.001,0,0.002-0.005,0.005-0.007c0.155-0.186,0.322-0.367,0.507-0.528c0.964-0.827,2.254-1.19,3.52-1.262
		C490.376,355.18,490.692,355.18,491.009,355.192L491.009,355.192z M537.666,368.408l0.09,1.19c-0.019-0.27-0.027-0.539-0.052-0.807
		C537.694,368.663,537.682,368.537,537.666,368.408z M537.756,369.599c0.049,0.851,0.086,1.698,0.186,2.539L537.756,369.599z"/>
	<path id="path28849-2" style="fill:#FFFEF3;" d="M433.348,224.12c-1.158,1.394-2.061,2.98-3.126,4.445
		c6.05-2.5,8.937-3.254,16.705,0.628c-0.776-0.986-1.21-2.195-1.753-3.326c-0.568-1.191-1.283-2.334-2.247-3.235
		C439.66,219.721,435.871,221.105,433.348,224.12L433.348,224.12z"/>
	<path id="path14967-1-0" style="fill:#FFFEF3;" d="M407.66,264.304c-2.485,3.105-4.966,6.204-7.44,9.316
		c-2.55,3.204-5.096,6.407-7.666,9.597c-3.153,3.909-6.382,7.848-8.435,12.434c-1.765,3.941-2.598,8.22-3.808,12.362
		c-1.372,4.708-3.236,9.256-5.329,13.689c-1.933,4.094-4.061,8.091-6.194,12.083c-1.55,2.903-3.128,5.875-3.666,9.121
		c-0.426,2.568-0.179,5.222,0.476,7.739c5.301-1.393,8.022-3.572,15.073,0.263c9.96,7.949,23.876,27.677,26.411,40.16
		c0.277,0.376,0.556,0.747,0.839,1.114c1.006,0.251,2.03,0.41,3.07,0.427c1.366,0.026,2.745-0.2,3.995-0.749
		c1.25-0.545,2.367-1.429,3.108-2.576c0.914-1.408,1.224-3.158,1.041-4.83c-0.183-1.666-0.834-3.258-1.707-4.69
		c-2.134-3.501-5.504-6.035-8.746-8.544c-7-5.422-13.769-11.144-20.248-17.174c-1.828-1.706-3.659-3.466-4.936-5.613
		c-1.246-2.091-1.917-4.475-2.373-6.865c-1.25-6.56-0.93-13.465,1.302-19.755c0.874-2.464,2.029-4.815,3.141-7.182
		c1.93-4.095,3.755-8.27,6.291-12.02C403.77,289.146,404.026,280.308,407.66,264.304z"/>
	<path id="path8561" style="fill:#FFFEF3;" d="M456.219,216.392c-0.219-0.009-0.438-0.009-0.657,0.007
		c-0.933,0.063-1.842,0.385-2.635,0.885c-0.793,0.496-1.466,1.173-1.996,1.944c-1.06,1.542-1.525,3.434-1.601,5.303
		c-0.056,1.402,0.1,2.826,0.565,4.148c0.419,1.197,1.102,2.309,2.024,3.174c1.497,0.41,2.837,0.876,3.88,1.778
		c0.126,0.012,0.25,0.028,0.376,0.034c1.437,0.068,2.891-0.346,4.071-1.168c0.942-0.653,1.698-1.553,2.238-2.564
		c0.541-1.011,0.864-2.131,1.013-3.263c0.264-2.003-0.036-4.101-0.96-5.899c-0.926-1.796-2.501-3.279-4.398-3.975
		C457.524,216.568,456.875,216.426,456.219,216.392L456.219,216.392z M457.14,218.63c0.139-0.007,0.276,0.002,0.399,0.019
		c1.075,0.137,2.15,0.865,2.811,1.839c0.729,1.075,1.483,2.723,0.942,3.932c-0.139,0.31-0.569,0.489-0.852,0.369
		c-0.91-0.387-0.732-2.097-1.379-2.923c-0.338-0.43-0.807-0.71-1.253-0.981c-0.458-0.285-1.104-0.224-1.453-0.667
		c-0.213-0.271-0.405-0.742-0.248-1.065C456.289,218.778,456.724,218.646,457.14,218.63z"/>
	<path id="path8579" style="fill:#FFFEF3;" d="M421.789,217.198c-0.416,0.032-0.823,0.13-1.203,0.303
		c-0.839,0.382-1.49,1.109-1.917,1.929c-0.428,0.817-0.646,1.732-0.798,2.639c-0.333,2.008-0.343,4.112,0.345,6.02
		c0.455,1.266,1.206,2.409,2.117,3.395c0.598,0.643,1.275,1.23,2.067,1.61c1.551-0.651,3.746-3.183,5.733-3.559
		c0.586-2.181,0.457-4.526-0.211-6.687c-0.514-1.667-1.367-3.271-2.702-4.396c-0.637-0.538-1.382-0.957-2.191-1.147
		C422.625,217.205,422.206,217.167,421.789,217.198L421.789,217.198z M423.636,219.305c0.302-0.005,0.638,0.116,0.893,0.252
		c0.886,0.469,1.604,1.407,1.895,2.395c0.32,1.086,0.5,2.637-0.311,3.402c-0.206,0.193-0.627,0.191-0.839,0
		c-0.67-0.613-0.03-1.892-0.354-2.76c-0.167-0.451-0.486-0.829-0.792-1.195c-0.316-0.374-0.892-0.546-1.062-1.009
		c-0.105-0.292-0.138-0.722,0.088-0.919C423.285,219.352,423.454,219.307,423.636,219.305L423.636,219.305z"/>
	<path id="path8549" style="fill:#FFFEF3;" d="M431.301,226.779c-4.207,1.464-8.008,4.06-10.902,7.445
		c-1.611,1.334-3.157,2.741-4.631,4.226c-2.002,2.677-3.478,7.365-2.204,7.616c0.031-0.198,0.07-0.389,0.111-0.587
		c0.188-0.92,0.29-1.86,0.588-2.753c0.382-1.129,1.067-2.136,1.822-3.062c1.32-1.621,2.88-3.044,4.613-4.21
		c2.847-3.347,6.6-5.915,10.749-7.354c3.737-1.298,7.873-1.671,11.657-0.526c1.691,0.512,3.281,1.318,4.84,2.152
		c1.517,0.815,3.014,1.66,4.555,2.425c3.102,1.537,6.369,2.739,9.73,3.549c1.099,0.267,2.213,0.494,3.242,0.952
		c0.75,0.332,1.471,0.811,1.891,1.521c0.333,0.832,0.68,1.177,0.777,0.276c-0.086-1.5-1.274-2.557-2.487-3.105
		c-1.09-0.481-2.229-0.71-3.313-0.973c-3.332-0.806-6.57-1.995-9.643-3.515c-1.524-0.761-3.021-1.605-4.541-2.42
		c-1.565-0.84-3.181-1.658-4.923-2.186C439.214,225.172,434.887,225.557,431.301,226.779L431.301,226.779z"/>
	<path id="path8535" style="fill:#FFFEF3;" d="M468.425,241.677c-0.008,0.253-0.026,0.51-0.056,0.762
		c-0.154,1.31-0.565,2.578-0.738,3.887c-0.127,1.009-0.119,2.067-0.564,2.988c-0.461,0.952-1.363,1.623-2.32,2.074
		c-0.959,0.451-1.993,0.717-2.986,1.084c-4.551,1.683-8.002,5.412-12.135,7.955c-2.17,1.339-4.541,2.353-6.988,3.074
		c-2.644,0.778-5.418,1.22-8.157,0.944c-2.335-0.234-4.632-1.001-6.553-2.35c-2.719-1.906-4.521-4.82-6.557-7.447
		c-1.517-1.954-3.225-3.807-5.322-5.125c-0.395-0.246-0.803-0.474-1.178-0.749c-0.376-0.276-0.724-0.599-0.963-0.998
		c-0.11-0.185-0.189-0.385-0.247-0.592c-0.021-0.047-0.043-0.093-0.061-0.139c-0.055-0.167-0.077-0.344-0.077-0.519
		c0-0.027,0.006-0.053,0.006-0.078c-1.491,0.717-1.44,3.224-0.738,3.951c2.823,1.742,5.387,3.909,7.572,6.407
		c2.014,2.294,3.879,5.148,6.827,7.092c2.166,1.427,4.675,2.158,7.17,2.381c2.947,0.262,5.866-0.168,8.623-0.911
		c2.53-0.683,5.004-1.644,7.307-2.961c4.333-2.482,7.773-5.909,11.877-7.216c0.9-0.284,1.973-0.499,3.095-0.977
		c0.561-0.234,1.134-0.542,1.664-0.972c0.528-0.428,1.009-0.972,1.341-1.644C468.303,249.562,471.661,242.109,468.425,241.677
		L468.425,241.677z"/>
	<path id="path8591" style="fill:#FFFEF3;" d="M462.519,240.868c-0.416-0.007-0.829,0.043-1.224,0.167
		c-0.52,0.166-0.987,0.469-1.406,0.815c-0.422,0.348-0.801,0.74-1.193,1.125c-1.156,1.113-2.425,2.104-3.712,3.064
		c-2.836,2.115-5.799,4.112-9.089,5.408c-2.148,0.849-4.405,1.386-6.669,1.837c-2.85,0.567-5.747,1.009-8.649,0.895
		c-2.904-0.111-5.832-0.804-8.287-2.352c-1.111-0.703-2.112-1.569-3.196-2.315c-1.081-0.747-2.285-1.382-3.59-1.53
		c-0.291-0.032-0.584-0.043-0.87-0.1c-0.094-0.019-0.187-0.05-0.278-0.082c-0.034,0.214-0.017,0.435,0.052,0.637
		c0.411,1.1,1.315,1.514,2.424,1.749c0.718,0.166,1.466,0.656,2.19,1.307c0.731,0.658,1.467,1.496,2.421,2.27
		c2.586,2.106,5.898,2.917,9.051,2.974c3.141,0.047,6.146-0.599,9.026-1.248c2.257-0.508,4.57-1.049,6.838-1.888
		c3.484-1.284,6.711-3.224,9.502-5.653c1.267-1.103,2.36-2.202,3.546-2.942c1.048-0.663,2.384-1.155,3.748-1.96
		c0.125-0.075,0.296-0.177,0.49-0.337c0.199-0.167,0.418-0.396,0.583-0.726c0.148-0.292,0.208-0.594,0.217-0.872
		c-0.228-0.039-0.455-0.083-0.683-0.118C463.354,240.923,462.933,240.871,462.519,240.868L462.519,240.868z"/>
	<path id="path8597" style="fill:#FFFEF3;" d="M441.532,229.855c-0.384,0.018-0.743,0.095-1.069,0.278
		c-0.199,0.109-0.42,0.377-0.351,0.599c0.206,0.662,1.273,0.556,1.895,0.876c0.544,0.278,0.981,0.89,1.596,0.911
		c0.584,0.013,1.503-0.212,1.577-0.79c0.104-0.768-1.017-1.246-1.735-1.53C442.866,229.979,442.174,229.816,441.532,229.855
		L441.532,229.855z M429.531,230.324c-0.781,0.105-1.743,1.264-1.367,1.894c0.117,0.199,0.476,0.451,0.719,0.314
		c0.368-0.2,0.673-0.924,1.071-1.209c0.266-0.184,0.204-0.879-0.106-0.981C429.748,230.311,429.645,230.311,429.531,230.324
		L429.531,230.324z"/>
	<path id="path6521" style="fill:#FFFEF3;" d="M521.592,348.496l-3.98-1.279c-1.604-0.519-3.23-1.002-4.905-1.149
		c-1.679-0.147-3.387,0.032-4.984,0.556l0,0l-1.376,0.951"/>
	<path id="path6519" style="fill:#FFFEF3;" d="M500.163,353.575c0.504-0.24,0.993-0.506,1.471-0.796
		c1.314-0.811,2.519-1.803,3.914-2.464c1.751-0.827,3.712-1.09,5.641-1.271c1.348-0.123,2.698-0.219,4.048-0.271
		c2.629-0.095,5.267-0.024,7.89,0.21l-1.534-0.486"/>
	<path id="path6517" style="fill:#FFFEF3;" d="M502.476,350.258l-2.286,1.583l-0.354,1.888c0.11-0.047,0.221-0.098,0.328-0.153"/>
	<path id="path29714-3-9-3-8-1" style="fill:#FFFEF3;" d="M506.346,347.574l-3.87,2.684"/>
</g>
<polygon style="fill:#885199;" points="398.521,328.665 378.545,318.261 378.545,159.33 398.521,163.833 "/>
<polygon style="fill:#885199;" points="468.452,365.088 409.074,334.161 409.074,300.572 468.452,327.991 "/>
<polygon style="fill:#EF7F23;" points="513.405,274.708 423.5,300.296 423.5,263.199 513.405,242.921 "/>
<polygon style="fill:#EF7F23;" points="448.679,435.563 423.5,448.68 423.5,318.844 448.679,310.934 "/>
<polygon style="fill:#EF7F23;" points="513.405,401.854 460.528,429.394 460.528,394.485 513.405,370.066 "/>
</svg>
